# xmcd
#
# Track frame offsets:
#	150
#	8187
#	23505
#	37675
#	48627
#	67229
#	79014
#	103001
#	112871
#	120184
#	135243
#	144538
#	161776
#	169954
#	182306
#	192069
#
# Disc length: 2724 seconds
# Revision: 0
# Processed by: cddbd v1.5.2PL0 Copyright (c) Steve Scherf et al.
# Submitted via: dBpowerAMP V12.0
#
DISCID=c10aa210
DTITLE=The Foghorn Stringband - Devil in the Seat
DYEAR=2015
DGENRE=Folk
TTITLE0=Stillhouse
TTITLE1=Mining Camp Blues
TTITLE2=Columbus Stockade Blues
TTITLE3=Old Molly Hare
TTITLE4=Henry Lee
TTITLE5=Lost Gal
TTITLE6=John Hardy
TTITLE7=What will we Do
TTITLE8=Chicken Reel
TTITLE9=Longing For a Home
TTITLE10=Jailbreak
TTITLE11=Pretty Polly
TTITLE12=Paddy on the Turnpike
TTITLE13=Leland's Waltz
TTITLE14=90 Miles an Hour
TTITLE15=Chadwell's Station
EXTD=
EXTT0=
EXTT1=
EXTT2=
EXTT3=
EXTT4=
EXTT5=
EXTT6=
EXTT7=
EXTT8=
EXTT9=
EXTT10=
EXTT11=
EXTT12=
EXTT13=
EXTT14=
EXTT15=
PLAYORDER=
